<svg xmlns="http://www.w3.org/2000/svg" xmlns:xlink="http://www.w3.org/1999/xlink" width="131" height="67" viewBox="0 0 131 67"><defs><linearGradient id="a" x1="0.5" y1="-0.306" x2="0.5" y2="0.746" gradientUnits="objectBoundingBox"><stop offset="0" stop-color="#fff"/><stop offset="1" stop-color="#e9f5fb"/></linearGradient></defs><g transform="translate(-735 -504.746)"><rect width="131" height="67" rx="4" transform="translate(735 504.746)" fill="url(#a)"/><path d="M4,1A3,3,0,0,0,1,4V63a3,3,0,0,0,3,3H127a3,3,0,0,0,3-3V4a3,3,0,0,0-3-3H4M4,0H127a4,4,0,0,1,4,4V63a4,4,0,0,1-4,4H4a4,4,0,0,1-4-4V4A4,4,0,0,1,4,0Z" transform="translate(735 504.746)" fill="rgba(0,0,0,0.07)"/></g></svg>