<svg xmlns="http://www.w3.org/2000/svg" width="99" height="93.25" viewBox="0 0 99 93.25"><g transform="translate(-726.884 -205)"><path d="M42.968,9.237a8,8,0,0,1,13.064,0L90.077,57.381A8,8,0,0,1,83.545,70H15.455A8,8,0,0,1,8.923,57.381Z" transform="translate(726.884 205)" fill="#fff"/><path d="M49.5,7.856a5.93,5.93,0,0,0-4.9,2.536L10.556,58.536A6,6,0,0,0,15.455,68H83.545a6,6,0,0,0,4.9-9.464L54.4,10.392a5.93,5.93,0,0,0-4.9-2.536m0-2a7.947,7.947,0,0,1,6.532,3.381L90.077,57.381A8,8,0,0,1,83.545,70H15.455A8,8,0,0,1,8.923,57.381L42.968,9.237A7.947,7.947,0,0,1,49.5,5.856Z" transform="translate(726.884 205)" fill="#bc2626"/><g transform="translate(746.754 258.039)"><path d="M5.649-426.535a7.577,7.577,0,0,0-3.125,1.5,7.029,7.029,0,0,0-1.732,2.586L.5-421.69v30.075l.293.761a7.029,7.029,0,0,0,1.732,2.586,7.157,7.157,0,0,0,3.359,1.521c.62.07,9.023.105,25.16.082l24.224-.035.761-.269a7.884,7.884,0,0,0,2.75-1.814,7.309,7.309,0,0,0,1.3-2.305c.211-.62.222-1.3.222-15.564s-.012-14.944-.222-15.564A6.432,6.432,0,0,0,56-426.336l-.737-.269-24.458-.012C17.188-426.629,6.035-426.594,5.649-426.535Zm49.84,2.692a3.818,3.818,0,0,1,2.376,3.616l.07,1.053H2.864l.059-1.03A3.834,3.834,0,0,1,4.5-423.4c1.042-.726-.807-.679,25.862-.679C54.811-424.089,54.846-424.089,55.489-423.843Zm2.294,9.7v2.457H3.016V-416.6H57.783Zm.094,13.54-.035,8.519-.3.655a4.078,4.078,0,0,1-1.814,1.872l-.573.281H5.649l-.573-.281a4.078,4.078,0,0,1-1.814-1.872l-.3-.655L2.922-400.6l-.035-8.508H57.912Z" transform="translate(-0.5 426.619)" fill="#bc2626"/><path d="M25.665-426.869l5.145,0,24.5.012.779.284a6.7,6.7,0,0,1,4.224,4.275c.227.667.235,1.252.235,15.644s-.009,14.977-.236,15.645a7.574,7.574,0,0,1-1.347,2.389,8.106,8.106,0,0,1-2.852,1.884l-.8.285-24.267.035c-3.306,0-6.367.007-9.1.007-6.974,0-15.427-.016-16.09-.091H5.849A7.358,7.358,0,0,1,2.36-388.08a7.275,7.275,0,0,1-1.8-2.684l-.31-.8v-30.168l.309-.8a7.276,7.276,0,0,1,1.8-2.684,7.791,7.791,0,0,1,3.254-1.558C6.008-426.842,15.969-426.869,25.665-426.869Zm29.558.514-24.414-.012-5.145,0c-11.2,0-19.6.034-19.98.082A7.3,7.3,0,0,0,2.69-424.85a6.747,6.747,0,0,0-1.665,2.49l-.276.717v29.982l.276.717a6.745,6.745,0,0,0,1.664,2.488A6.912,6.912,0,0,0,5.914-387c.3.033,2.795.087,16.031.087,2.732,0,5.793,0,9.1-.007l24.181-.035.72-.255a7.644,7.644,0,0,0,2.643-1.741,7.049,7.049,0,0,0,1.253-2.224c.2-.58.209-1.449.209-15.483s-.012-14.9-.209-15.484a6.216,6.216,0,0,0-3.921-3.965Zm-13.931,2.024c13.621,0,13.709.034,14.287.254a4.052,4.052,0,0,1,2.536,3.833l.088,1.319H2.6l.074-1.294a4.1,4.1,0,0,1,1.689-3.387c.057-.04.107-.079.156-.117.74-.582.769-.605,17.773-.605h8.074C34.741-424.33,38.337-424.331,41.292-424.331Zm16.376,4.907-.052-.787a3.58,3.58,0,0,0-2.213-3.4c-.5-.191-.956-.222-14.11-.222-2.955,0-6.551,0-10.927,0H22.29c-8.466,0-12.7.008-14.9.081-2.125.07-2.282.193-2.566.417-.052.041-.11.087-.182.137a3.587,3.587,0,0,0-1.473,3.005l-.043.764Zm-54.9,2.575H58.033v5.415H2.766Zm54.767.5H3.266v4.415H57.533Zm-54.9,6.99H58.163l-.071,17.333-.327.7a4.35,4.35,0,0,1-1.929,1.991l-.627.307H5.591l-.625-.306a4.349,4.349,0,0,1-1.929-1.989l-.328-.708Zm55.025.5H3.138l.069,16.721.281.606a3.837,3.837,0,0,0,1.7,1.754l.52.254H55.092l.521-.255a3.837,3.837,0,0,0,1.7-1.756l.28-.6Z" transform="translate(-0.5 426.619)" fill="#fff"/><path d="M365.967-234.7a3.935,3.935,0,0,0-2.656,2.305c-.222.609-.246.866-.211,2.773.035,1.966.059,2.165.316,2.692a4.077,4.077,0,0,0,1.872,1.814c.632.293.737.3,2.645.3a7.807,7.807,0,0,0,2.61-.211A4.3,4.3,0,0,0,372.684-227c.269-.585.281-.761.281-2.785s-.012-2.2-.281-2.785a4.381,4.381,0,0,0-2.083-1.954A16.5,16.5,0,0,0,365.967-234.7Zm4,2.645c.456.328.6.854.6,2.27,0,2.282-.187,2.457-2.481,2.457-2.446,0-2.551-.094-2.551-2.457,0-1.65.117-2.071.632-2.329a10.266,10.266,0,0,1,1.884-.117C369.4-232.239,369.747-232.2,369.969-232.052Z" transform="translate(-320.656 257.238)" fill="#bc2626"/><path d="M367.405-235.039a14.908,14.908,0,0,1,3.284.284,4.659,4.659,0,0,1,2.224,2.087c.294.639.3.846.3,2.887s-.008,2.248-.3,2.89a4.51,4.51,0,0,1-2.285,2.109,7.88,7.88,0,0,1-2.694.225c-1.9,0-2.059-.008-2.75-.327a4.35,4.35,0,0,1-1.991-1.929c-.281-.574-.306-.784-.342-2.8a6.7,6.7,0,0,1,.226-2.864,4.171,4.171,0,0,1,2.83-2.462A8.027,8.027,0,0,1,367.405-235.039Zm.528,9.981a7.642,7.642,0,0,0,2.527-.2,4.073,4.073,0,0,0,2-1.845c.246-.535.258-.661.258-2.681s-.012-2.146-.258-2.681a4.136,4.136,0,0,0-1.943-1.824,14.717,14.717,0,0,0-3.109-.252,7.441,7.441,0,0,0-1.378.085,3.707,3.707,0,0,0-2.482,2.151c-.2.556-.23.762-.195,2.681.036,1.991.066,2.126.291,2.586a3.837,3.837,0,0,0,1.756,1.7C365.967-225.074,366-225.058,367.933-225.058Zm.544-7.421c1.041,0,1.377.045,1.634.221l0,0c.6.428.7,1.139.7,2.473,0,1.1-.032,1.845-.455,2.262s-1.141.445-2.276.445c-1.237,0-1.957-.019-2.366-.412s-.435-1.1-.435-2.3c0-1.653.106-2.22.77-2.552l.016-.007a10.177,10.177,0,0,1,1.98-.136Zm1.349.632c-.171-.115-.581-.141-1.774-.13a11.685,11.685,0,0,0-1.789.1c-.341.175-.48.431-.48,2.1,0,1.131.028,1.691.282,1.935s.84.273,2.02.273c1.1,0,1.666-.045,1.925-.3s.306-.819.306-1.907C370.316-231.235,370.158-231.608,369.826-231.847Z" transform="translate(-320.656 257.238)" fill="#fff"/><path d="M64.95-212.86a1.275,1.275,0,0,0-.2,1.978l.3.281,7.852.035c7.115.035,7.9.012,8.227-.152a1.232,1.232,0,0,0,.293-1.943L81.088-213l-7.946.012C67.9-212.988,65.126-212.941,64.95-212.86Z" transform="translate(-56.899 237.999)" fill="#bc2626"/><path d="M81.191-213.25l.413.413a1.454,1.454,0,0,1,.407,1.261,1.449,1.449,0,0,1-.76,1.079c-.29.145-.689.195-4.043.195-1,0-2.327,0-4.3-.014l-7.949-.036-.376-.347a1.56,1.56,0,0,1-.44-1.358,1.344,1.344,0,0,1,.7-1.028l0,0c.106-.049.326-.152,8.3-.152ZM77.208-210.8c3.044,0,3.618-.041,3.815-.14a.952.952,0,0,0,.493-.71.959.959,0,0,0-.266-.833l-.266-.266-7.842.012c-6.739,0-7.918.076-8.1.112a.855.855,0,0,0-.407.644,1.053,1.053,0,0,0,.286.918l.231.213,7.755.035C74.883-210.806,76.208-210.8,77.208-210.8Z" transform="translate(-56.899 237.999)" fill="#fff"/><path d="M64.737-170.936A1.365,1.365,0,0,0,64-169.824a1.36,1.36,0,0,0,.761,1.123c.585.246,15.318.246,15.9,0a1.155,1.155,0,0,0,.772-1.123,1.155,1.155,0,0,0-.772-1.123C80.091-171.193,65.287-171.181,64.737-170.936Z" transform="translate(-56.569 201.025)" fill="#bc2626"/><path d="M72.966-171.376c2.739,0,7.393.026,7.8.2a1.406,1.406,0,0,1,.924,1.353,1.406,1.406,0,0,1-.926,1.354,11.9,11.9,0,0,1-2.741.158c-1.426.03-3.311.046-5.308.046-1.774,0-7.6-.015-8.049-.2a1.608,1.608,0,0,1-.914-1.354,1.6,1.6,0,0,1,.89-1.342,12.06,12.06,0,0,1,2.838-.162C68.966-171.359,70.915-171.376,72.966-171.376Zm7.606.661c-.286-.08-2.983-.161-7.606-.161-4.3,0-7.785.074-8.135.172a1.126,1.126,0,0,0-.581.88,1.117,1.117,0,0,0,.6.891c.34.1,3.711.167,7.86.167s7.524-.072,7.86-.167a.91.91,0,0,0,.614-.891A.91.91,0,0,0,80.572-170.715Z" transform="translate(-56.569 201.025)" fill="#fff"/></g><rect width="3" height="21" rx="1.5" transform="translate(774.884 224)" fill="#bc2626"/><rect width="3" height="4" rx="1.5" transform="translate(774.884 247)" fill="#bc2626"/></g></svg>