<svg xmlns="http://www.w3.org/2000/svg" width="102.108" height="18.494" viewBox="0 0 102.108 18.494"><path d="M35.766,10.433a9.4,9.4,0,0,0-4.023.92,12.584,12.584,0,0,0-4.81,4.2,18.227,18.227,0,0,0-2.208,4.271c-1.1,3.025-1.092,5.478.037,7.1.64.914,1.971,2.006,4.677,2.009h.01c4.929,0,8.608-3.231,10.938-9.6.615-1.686,1.428-4.832-.057-6.955-.9-1.283-2.43-1.935-4.565-1.937h0Zm29.739,0a9.391,9.391,0,0,0-4.022.92,12.576,12.576,0,0,0-4.809,4.2,18.189,18.189,0,0,0-2.208,4.271c-1.105,3.025-1.092,5.478.038,7.1.639.914,1.969,2.006,4.677,2.009h.008c4.93,0,8.61-3.231,10.938-9.6.618-1.686,1.427-4.832-.056-6.955C69.174,11.087,67.641,10.435,65.5,10.433Zm-45.568.256a9.939,9.939,0,0,0-4.61.716c-1.411.716-2.657,2.15-3.617,5.017a5.677,5.677,0,0,0-.332,1.609,2.406,2.406,0,0,0,.241,1.2,3.479,3.479,0,0,0,1,1.139,4.929,4.929,0,0,0,1.527.772l.678.193c.358.1.777.226,1.042.307a2.112,2.112,0,0,1,.48.2.964.964,0,0,1,.382.386.853.853,0,0,1,.092.371,1.208,1.208,0,0,1-.071.43,1.17,1.17,0,0,1-.712.793,5.22,5.22,0,0,1-1.786.209H3.669L2,28.629H13.327a12.341,12.341,0,0,0,4.889-.8,7.507,7.507,0,0,0,4.431-5.569,3.786,3.786,0,0,0-.271-2.936,4.188,4.188,0,0,0-2.559-1.675l-.6-.174-.891-.256a1.2,1.2,0,0,1-.705-.507,1,1,0,0,1-.1-.8A1.178,1.178,0,0,1,18.1,15.2a2.38,2.38,0,0,1,1.146-.255h6.587c.046-.067.089-.14.135-.207a14.543,14.543,0,0,1,4.255-4.052H19.937Zm29.605,0A6.167,6.167,0,0,0,43.4,14.948L38.419,28.629h5.455L46.433,21.6l4.821,0,1.372-3.767-4.805,0,.774-2.181a1.151,1.151,0,0,1,1.11-.7l5.684,0c.047-.068.09-.141.136-.208a15.338,15.338,0,0,1,4.5-4.052H49.542Zm25.306.01L68.315,28.641h5.548l2.374-6.315c.116.26,1.517,6.315,1.517,6.315h5.833a55.941,55.941,0,0,0-1.841-6.246,9.843,9.843,0,0,0-.69-1.413,8.179,8.179,0,0,0,5.024-4.59c.607-1.637.572-2.961-.1-3.932-.818-1.178-2.483-1.757-5.092-1.76H74.847Zm11.381,0a4.483,4.483,0,0,1,.906.957,4.665,4.665,0,0,1,.745,3.3h3.3L86.2,28.645h4.975L96.161,14.96h6.392L104.1,10.7ZM78.5,14.4h.916c1.674,0,2.3.491,1.732,2.019a3.2,3.2,0,0,1-3.309,2.321h-.949L78.5,14.4Zm-44.047.089h0c1.7,0,2.094.99.6,5.084h0c-1.538,4.208-2.653,5.267-4.333,5.267h0c-1.636,0-2.211-1.037-.679-5.225,1.143-3.127,2.624-5.126,4.416-5.126h0Zm29.739,0h0c1.7,0,2.094.99.6,5.084-1.537,4.208-2.653,5.267-4.332,5.267h0c-1.637,0-2.209-1.037-.678-5.225,1.142-3.127,2.624-5.126,4.415-5.126h0Z" transform="translate(-1.996 -10.433)" fill="#303c42"/></svg>