<svg xmlns="http://www.w3.org/2000/svg" width="87.341" height="22.32" viewBox="0 0 87.341 22.32"><g transform="translate(60.168 5.823)"><path d="M51.248,28.2H46.534a.921.921,0,0,0-.693.555L43.9,40.954a.368.368,0,0,0,.416.416h2.5a.368.368,0,0,0,.416-.416l.555-3.466a.634.634,0,0,1,.693-.555H50q4.783,0,5.407-4.575a3.634,3.634,0,0,0-.555-3.05,5.592,5.592,0,0,0-3.6-1.109m.555,4.575c-.277,1.664-1.525,1.664-2.773,1.664H48.2l.555-3.189c0-.139.139-.277.416-.277h.277c.832,0,1.664,0,2.08.555.277.139.277.555.277,1.248" transform="translate(-43.9 -28.2)" fill="#139ad6"/></g><g transform="translate(26.202 5.823)"><path d="M26.748,28.2H22.034a.921.921,0,0,0-.693.555L19.4,40.954a.368.368,0,0,0,.416.416h2.218a.921.921,0,0,0,.693-.555l.555-3.327a.634.634,0,0,1,.693-.555H25.5q4.783,0,5.407-4.575a3.634,3.634,0,0,0-.555-3.05,5.329,5.329,0,0,0-3.6-1.109m.555,4.575c-.277,1.664-1.525,1.664-2.773,1.664h-.693l.555-3.189c0-.139.139-.277.416-.277h.277c.832,0,1.664,0,2.08.555a1.485,1.485,0,0,1,.139,1.248" transform="translate(-19.4 -28.2)" fill="#263b80"/></g><g transform="translate(37.068 9.982)"><path d="M38,31.477H35.781c-.139,0-.416.139-.416.277l-.139.693-.139-.277a3.261,3.261,0,0,0-2.634-.97,5.327,5.327,0,0,0-5.13,4.575,4.132,4.132,0,0,0,.832,3.466,3.493,3.493,0,0,0,2.911,1.109A4.431,4.431,0,0,0,34.256,39.1l-.139.693a.368.368,0,0,0,.416.416h2.08a.921.921,0,0,0,.693-.555l1.248-7.764c-.139-.139-.416-.416-.555-.416m-3.189,4.436a2.681,2.681,0,0,1-2.634,2.218,2.217,2.217,0,0,1-1.525-.555,2.957,2.957,0,0,1-.416-1.664,2.473,2.473,0,0,1,4.02-1.664,2.42,2.42,0,0,1,.555,1.664" transform="translate(-27.237 -31.2)" fill="#263b80"/></g><g transform="translate(70.895 9.982)"><path d="M62.4,31.477H60.181c-.139,0-.416.139-.416.277l-.139.693-.139-.277a3.261,3.261,0,0,0-2.634-.97,5.327,5.327,0,0,0-5.13,4.575,4.132,4.132,0,0,0,.832,3.466,3.493,3.493,0,0,0,2.911,1.109A4.431,4.431,0,0,0,58.656,39.1l-.139.693a.368.368,0,0,0,.416.416h2.08a.921.921,0,0,0,.693-.555l1.248-7.764c-.139-.139-.277-.416-.555-.416m-3.189,4.436a2.681,2.681,0,0,1-2.634,2.218,2.217,2.217,0,0,1-1.525-.555,2.957,2.957,0,0,1-.416-1.664,2.473,2.473,0,0,1,4.02-1.664,1.591,1.591,0,0,1,.555,1.664" transform="translate(-51.637 -31.2)" fill="#139ad6"/></g><g transform="translate(0 0)"><g transform="translate(49.216 10.259)"><path d="M46.675,31.4H44.318a.72.72,0,0,0-.555.277l-3.05,4.714-1.386-4.436a.64.64,0,0,0-.693-.416H36.416c-.277,0-.416.277-.416.555l2.5,7.348-2.357,3.327c-.139.277,0,.693.277.693h2.218a.72.72,0,0,0,.555-.277l7.625-10.952c.416-.416.139-.832-.139-.832" transform="translate(-36 -31.4)" fill="#263b80"/></g><g transform="translate(82.35 5.907)"><path d="M61.841,28.592,59.9,41.07a.368.368,0,0,0,.416.416h1.941a.921.921,0,0,0,.693-.555l1.941-12.2a.368.368,0,0,0-.416-.416H62.257c-.139-.139-.277,0-.416.277" transform="translate(-59.9 -28.261)" fill="#139ad6"/></g><path d="M16.443,25.664C15.473,24.555,13.67,24,11.175,24H4.243a1.189,1.189,0,0,0-.97.832L.5,42.993a.634.634,0,0,0,.555.693h4.3l1.109-6.793v.277a1.189,1.189,0,0,1,.97-.832h2.08c4.02,0,7.07-1.664,8.041-6.239v-.416h0a4.842,4.842,0,0,0-1.109-4.02" transform="translate(-0.5 -24)" fill="#263b80"/></g><g transform="translate(4.436 5.684)"><path d="M16.177,28.1h0v.416c-.97,4.714-4.02,6.239-8.041,6.239H6.057a1.189,1.189,0,0,0-.97.832L3.7,44.043a.508.508,0,0,0,.555.555h3.6a.776.776,0,0,0,.832-.693v-.139l.693-4.3v-.277a.776.776,0,0,1,.832-.693h.555c3.466,0,6.239-1.386,6.932-5.545a5.1,5.1,0,0,0-.693-4.159,1.42,1.42,0,0,0-.832-.693" transform="translate(-3.7 -28.1)" fill="#139ad6"/></g><g transform="translate(5.961 4.852)"><path d="M14.782,27.916c-.139,0-.277-.139-.416-.139a.509.509,0,0,1-.416-.139,7.324,7.324,0,0,0-1.8-.139H6.741a.509.509,0,0,0-.416.139.762.762,0,0,0-.416.693L4.8,35.541v.277a1.189,1.189,0,0,1,.97-.832H7.85c4.02,0,7.07-1.664,8.041-6.239a.509.509,0,0,1,.139-.416c-.277-.139-.416-.277-.693-.277-.416-.139-.416-.139-.555-.139" transform="translate(-4.8 -27.5)" fill="#232c65"/></g></svg>