<svg xmlns="http://www.w3.org/2000/svg" width="91.133" height="24.442" viewBox="0 0 91.133 24.442"><g transform="translate(0 0)"><path d="M20.168,29.768h5.587l-2.793-6.983ZM98.033,16.5H83.717l-3.492,3.841L77.083,16.5H46.705l-2.793,6.285L41.119,16.5H28.9v2.793L27.5,16.5H17.026L6.9,40.942H19.121l1.4-3.841h3.492l1.4,3.841H39.024V38.148l1.048,2.793h6.983L48.1,37.8v3.143H76.035L79.527,37.1l3.143,3.841H96.986L87.907,28.721ZM55.784,37.45H51.943V23.833L46.007,37.45H42.515L36.579,23.833V37.45H28.548l-1.4-3.841h-8.38l-1.4,3.841H12.836l7.333-17.458H26.1L32.739,36.4V19.992h6.634L44.61,31.863,49.5,19.992h6.634V37.45Zm34.568,0H85.114l-4.539-5.936L75.337,37.45H59.625V19.992H75.686l4.888,5.587,5.238-5.587H90.7l-7.682,8.729ZM63.465,23.483v3.143h8.729v3.492H63.465v3.492h9.777l4.539-5.238-4.19-4.888Z" transform="translate(-6.9 -16.5)" fill="#3498d8" fill-rule="evenodd"/></g></svg>