<svg xmlns="http://www.w3.org/2000/svg" width="53.151" height="29.702" viewBox="0 0 53.151 29.702"><g transform="translate(0 0)"><g transform="translate(26.576)"><path d="M267.724,161A14.851,14.851,0,1,1,256,184.966a14.851,14.851,0,0,0,0-18.231A14.82,14.82,0,0,1,267.724,161Z" transform="translate(-256 -161)" fill="#f79f1a"/></g><g transform="translate(23.449 5.736)"><path d="M239.127,197.69a14.851,14.851,0,0,1,0,18.231,14.851,14.851,0,0,1,0-18.231Z" transform="translate(-236 -197.69)" fill="#ff5f01"/></g><g transform="translate(0)"><path d="M100.851,161a14.82,14.82,0,0,1,11.725,5.736,14.851,14.851,0,0,0,0,18.231A14.851,14.851,0,1,1,100.851,161Z" transform="translate(-86 -161)" fill="#ea001b"/></g></g><path d="M254.4,253.944v.574h.1v-.574h.237v-.1h-.574v.1Z" transform="translate(-227.876 -239.33)"/><path d="M254.353,253.844h-.175l-.2.437-.2-.437H253.6v.674h.1v-.512l.2.437h.137l.175-.437v.512h.137Z" transform="translate(-227.403 -239.33)"/></svg>