<svg xmlns="http://www.w3.org/2000/svg" width="87.971" height="28.482" viewBox="0 0 87.971 28.482"><g transform="translate(7.688 0)"><g transform="translate(0)"><path d="M93.166,182.356l-4.477,27.516h7.163l4.478-27.516Zm-10.5,0-6.83,18.925-.808-4.075h0l-.178-.913a22.818,22.818,0,0,0-6.356-8.056,28.656,28.656,0,0,0-3.187-2.206l6.207,23.84h7.464l11.4-27.516ZM110.619,190c0-3.111,6.976-2.711,10.042-1.022l1.022-5.91a20.678,20.678,0,0,0-6.443-1.2c-3.555,0-12,1.555-12,9.109,0,7.109,9.908,7.2,9.908,10.93s-8.887,3.066-11.819.711l-1.066,6.177a20.066,20.066,0,0,0,8.087,1.555c4.888,0,12.264-2.532,12.264-9.42C120.616,193.772,110.619,193.106,110.619,190Zm29.232-7.639h-5.76a3.292,3.292,0,0,0-3.307,2.051L120.1,209.872h7.466l1.494-4.087h9.107l.84,4.087h6.577Zm-8.725,17.783,3.764-10.3,2.118,10.3Z" transform="translate(-65.303 -181.864)" fill="#005bac" fill-rule="evenodd"/></g></g><g transform="translate(0 0.6)"><path d="M40.106,187.49s-.3-2.483-3.462-2.483h-11.5l-.135.467a28.5,28.5,0,0,1,10.832,5.349,21.49,21.49,0,0,1,6.722,9.065Z" transform="translate(-25.009 -185.007)" fill="#f6ac1d" fill-rule="evenodd"/></g></svg>