<svg xmlns="http://www.w3.org/2000/svg" width="78.335" height="78.34" viewBox="0 0 78.335 78.34"><g transform="translate(-760.833 -354.5)"><g transform="translate(759.333 353.01)"><path d="M40.673,79.83q-.73,0-1.46-.027A39.17,39.17,0,1,1,56.608,4.883a1.5,1.5,0,1,1-1.221,2.74A36.167,36.167,0,0,0,10.326,60.345,36.167,36.167,0,0,0,76.834,40.68V37.216a1.5,1.5,0,0,1,3,0v3.465A39.179,39.179,0,0,1,40.673,79.83Z" transform="translate(0 0)" fill="#1ac141"/></g><path d="M24.8,45.2a1.5,1.5,0,0,1-1.061-.439l-11.3-11.3a1.5,1.5,0,1,1,2.121-2.121L24.8,41.583,61.406,4.94a1.5,1.5,0,0,1,2.122,2.12l-37.667,37.7a1.5,1.5,0,0,1-1.061.44Z" transform="translate(775.2 357.557)" fill="#1ac141"/></g></svg>